<mxfile host="app.diagrams.net" agent="Mozilla/5.0 (Windows NT 10.0; Win64; x64) AppleWebKit/537.36 (KHTML, like Gecko) Chrome/129.0.0.0 Safari/537.36" version="24.7.16">
  <diagram id="C5RBs43oDa-KdzZeNtuy" name="Page-1">
    <mxGraphModel dx="2897" dy="915" grid="1" gridSize="10" guides="1" tooltips="1" connect="1" arrows="1" fold="1" page="1" pageScale="1" pageWidth="1169" pageHeight="827" math="0" shadow="0">
      <root>
        <mxCell id="WIyWlLk6GJQsqaUBKTNV-0" />
        <mxCell id="WIyWlLk6GJQsqaUBKTNV-1" parent="WIyWlLk6GJQsqaUBKTNV-0" />
        <mxCell id="IK9ZZzLwYMVuYPHKwz3E-0" value="Service" style="swimlane;fontStyle=0;childLayout=stackLayout;horizontal=1;startSize=26;fillColor=none;horizontalStack=0;resizeParent=1;resizeParentMax=0;resizeLast=0;collapsible=1;marginBottom=0;whiteSpace=wrap;html=1;" vertex="1" parent="WIyWlLk6GJQsqaUBKTNV-1">
          <mxGeometry x="-800" y="53" width="140" height="52" as="geometry" />
        </mxCell>
        <mxCell id="IK9ZZzLwYMVuYPHKwz3E-4" value="InputPort" style="swimlane;fontStyle=0;childLayout=stackLayout;horizontal=1;startSize=26;fillColor=none;horizontalStack=0;resizeParent=1;resizeParentMax=0;resizeLast=0;collapsible=1;marginBottom=0;whiteSpace=wrap;html=1;" vertex="1" parent="WIyWlLk6GJQsqaUBKTNV-1">
          <mxGeometry x="-580" y="40" width="140" height="78" as="geometry">
            <mxRectangle x="-580" y="40" width="90" height="30" as="alternateBounds" />
          </mxGeometry>
        </mxCell>
        <mxCell id="IK9ZZzLwYMVuYPHKwz3E-5" value="location: l1" style="text;strokeColor=none;fillColor=none;align=left;verticalAlign=top;spacingLeft=4;spacingRight=4;overflow=hidden;rotatable=0;points=[[0,0.5],[1,0.5]];portConstraint=eastwest;whiteSpace=wrap;html=1;" vertex="1" parent="IK9ZZzLwYMVuYPHKwz3E-4">
          <mxGeometry y="26" width="140" height="26" as="geometry" />
        </mxCell>
        <mxCell id="IK9ZZzLwYMVuYPHKwz3E-7" value="protocol: p1" style="text;strokeColor=none;fillColor=none;align=left;verticalAlign=top;spacingLeft=4;spacingRight=4;overflow=hidden;rotatable=0;points=[[0,0.5],[1,0.5]];portConstraint=eastwest;whiteSpace=wrap;html=1;" vertex="1" parent="IK9ZZzLwYMVuYPHKwz3E-4">
          <mxGeometry y="52" width="140" height="26" as="geometry" />
        </mxCell>
        <mxCell id="IK9ZZzLwYMVuYPHKwz3E-8" value="" style="endArrow=diamondThin;endFill=1;endSize=24;html=1;rounded=0;exitX=0;exitY=0.5;exitDx=0;exitDy=0;entryX=1;entryY=0.5;entryDx=0;entryDy=0;" edge="1" parent="WIyWlLk6GJQsqaUBKTNV-1" source="IK9ZZzLwYMVuYPHKwz3E-5" target="IK9ZZzLwYMVuYPHKwz3E-0">
          <mxGeometry width="160" relative="1" as="geometry">
            <mxPoint x="-680" y="180" as="sourcePoint" />
            <mxPoint x="-520" y="180" as="targetPoint" />
          </mxGeometry>
        </mxCell>
        <mxCell id="IK9ZZzLwYMVuYPHKwz3E-11" value="Interface" style="swimlane;fontStyle=0;childLayout=stackLayout;horizontal=1;startSize=26;fillColor=none;horizontalStack=0;resizeParent=1;resizeParentMax=0;resizeLast=0;collapsible=1;marginBottom=0;whiteSpace=wrap;html=1;" vertex="1" parent="WIyWlLk6GJQsqaUBKTNV-1">
          <mxGeometry x="-580" y="170" width="140" height="52" as="geometry" />
        </mxCell>
        <mxCell id="IK9ZZzLwYMVuYPHKwz3E-13" value="RequestRespone&lt;div&gt;Operation&lt;/div&gt;" style="swimlane;fontStyle=0;childLayout=stackLayout;horizontal=1;startSize=26;fillColor=none;horizontalStack=0;resizeParent=1;resizeParentMax=0;resizeLast=0;collapsible=1;marginBottom=0;whiteSpace=wrap;html=1;" vertex="1" parent="WIyWlLk6GJQsqaUBKTNV-1">
          <mxGeometry x="-360" y="170" width="140" height="78" as="geometry">
            <mxRectangle x="-580" y="40" width="90" height="30" as="alternateBounds" />
          </mxGeometry>
        </mxCell>
        <mxCell id="IK9ZZzLwYMVuYPHKwz3E-14" value="request: type1" style="text;strokeColor=none;fillColor=none;align=left;verticalAlign=top;spacingLeft=4;spacingRight=4;overflow=hidden;rotatable=0;points=[[0,0.5],[1,0.5]];portConstraint=eastwest;whiteSpace=wrap;html=1;" vertex="1" parent="IK9ZZzLwYMVuYPHKwz3E-13">
          <mxGeometry y="26" width="140" height="26" as="geometry" />
        </mxCell>
        <mxCell id="IK9ZZzLwYMVuYPHKwz3E-15" value="protocol: type2" style="text;strokeColor=none;fillColor=none;align=left;verticalAlign=top;spacingLeft=4;spacingRight=4;overflow=hidden;rotatable=0;points=[[0,0.5],[1,0.5]];portConstraint=eastwest;whiteSpace=wrap;html=1;" vertex="1" parent="IK9ZZzLwYMVuYPHKwz3E-13">
          <mxGeometry y="52" width="140" height="26" as="geometry" />
        </mxCell>
        <mxCell id="IK9ZZzLwYMVuYPHKwz3E-17" value="" style="endArrow=diamondThin;endFill=0;endSize=24;html=1;rounded=0;entryX=0.54;entryY=0.918;entryDx=0;entryDy=0;entryPerimeter=0;exitX=0.54;exitY=-0.03;exitDx=0;exitDy=0;exitPerimeter=0;" edge="1" parent="WIyWlLk6GJQsqaUBKTNV-1" source="IK9ZZzLwYMVuYPHKwz3E-11" target="IK9ZZzLwYMVuYPHKwz3E-7">
          <mxGeometry width="160" relative="1" as="geometry">
            <mxPoint x="-600" y="260" as="sourcePoint" />
            <mxPoint x="-440" y="260" as="targetPoint" />
          </mxGeometry>
        </mxCell>
        <mxCell id="IK9ZZzLwYMVuYPHKwz3E-18" value="" style="endArrow=diamondThin;endFill=1;endSize=24;html=1;rounded=0;exitX=0.009;exitY=0.346;exitDx=0;exitDy=0;exitPerimeter=0;entryX=1;entryY=0.5;entryDx=0;entryDy=0;" edge="1" parent="WIyWlLk6GJQsqaUBKTNV-1" source="IK9ZZzLwYMVuYPHKwz3E-13" target="IK9ZZzLwYMVuYPHKwz3E-11">
          <mxGeometry width="160" relative="1" as="geometry">
            <mxPoint x="-530" y="330" as="sourcePoint" />
            <mxPoint x="-370" y="330" as="targetPoint" />
          </mxGeometry>
        </mxCell>
        <mxCell id="IK9ZZzLwYMVuYPHKwz3E-20" value="Type1" style="swimlane;fontStyle=0;childLayout=stackLayout;horizontal=1;startSize=26;fillColor=none;horizontalStack=0;resizeParent=1;resizeParentMax=0;resizeLast=0;collapsible=1;marginBottom=0;whiteSpace=wrap;html=1;" vertex="1" parent="WIyWlLk6GJQsqaUBKTNV-1">
          <mxGeometry x="-150" y="160" width="60" height="52" as="geometry" />
        </mxCell>
        <mxCell id="IK9ZZzLwYMVuYPHKwz3E-21" value="Type2" style="swimlane;fontStyle=0;childLayout=stackLayout;horizontal=1;startSize=26;fillColor=none;horizontalStack=0;resizeParent=1;resizeParentMax=0;resizeLast=0;collapsible=1;marginBottom=0;whiteSpace=wrap;html=1;" vertex="1" parent="WIyWlLk6GJQsqaUBKTNV-1">
          <mxGeometry x="-150" y="222" width="60" height="52" as="geometry" />
        </mxCell>
        <mxCell id="IK9ZZzLwYMVuYPHKwz3E-22" value="" style="endArrow=open;endFill=1;endSize=12;html=1;rounded=0;exitX=1;exitY=0.5;exitDx=0;exitDy=0;entryX=0;entryY=0.5;entryDx=0;entryDy=0;" edge="1" parent="WIyWlLk6GJQsqaUBKTNV-1" source="IK9ZZzLwYMVuYPHKwz3E-14" target="IK9ZZzLwYMVuYPHKwz3E-20">
          <mxGeometry width="160" relative="1" as="geometry">
            <mxPoint x="-300" y="290" as="sourcePoint" />
            <mxPoint x="-140" y="290" as="targetPoint" />
          </mxGeometry>
        </mxCell>
        <mxCell id="IK9ZZzLwYMVuYPHKwz3E-23" value="" style="endArrow=open;endFill=1;endSize=12;html=1;rounded=0;exitX=1;exitY=0.5;exitDx=0;exitDy=0;entryX=0;entryY=0.5;entryDx=0;entryDy=0;" edge="1" parent="WIyWlLk6GJQsqaUBKTNV-1" target="IK9ZZzLwYMVuYPHKwz3E-21">
          <mxGeometry width="160" relative="1" as="geometry">
            <mxPoint x="-220" y="235" as="sourcePoint" />
            <mxPoint x="-150" y="212" as="targetPoint" />
          </mxGeometry>
        </mxCell>
        <mxCell id="IK9ZZzLwYMVuYPHKwz3E-24" value="OutputPort" style="swimlane;fontStyle=0;childLayout=stackLayout;horizontal=1;startSize=26;fillColor=none;horizontalStack=0;resizeParent=1;resizeParentMax=0;resizeLast=0;collapsible=1;marginBottom=0;whiteSpace=wrap;html=1;" vertex="1" parent="WIyWlLk6GJQsqaUBKTNV-1">
          <mxGeometry x="-580" y="270" width="140" height="78" as="geometry">
            <mxRectangle x="-580" y="40" width="90" height="30" as="alternateBounds" />
          </mxGeometry>
        </mxCell>
        <mxCell id="IK9ZZzLwYMVuYPHKwz3E-25" value="location: l2" style="text;strokeColor=none;fillColor=none;align=left;verticalAlign=top;spacingLeft=4;spacingRight=4;overflow=hidden;rotatable=0;points=[[0,0.5],[1,0.5]];portConstraint=eastwest;whiteSpace=wrap;html=1;" vertex="1" parent="IK9ZZzLwYMVuYPHKwz3E-24">
          <mxGeometry y="26" width="140" height="26" as="geometry" />
        </mxCell>
        <mxCell id="IK9ZZzLwYMVuYPHKwz3E-26" value="protocol: p2" style="text;strokeColor=none;fillColor=none;align=left;verticalAlign=top;spacingLeft=4;spacingRight=4;overflow=hidden;rotatable=0;points=[[0,0.5],[1,0.5]];portConstraint=eastwest;whiteSpace=wrap;html=1;" vertex="1" parent="IK9ZZzLwYMVuYPHKwz3E-24">
          <mxGeometry y="52" width="140" height="26" as="geometry" />
        </mxCell>
        <mxCell id="IK9ZZzLwYMVuYPHKwz3E-27" value="Interface" style="swimlane;fontStyle=0;childLayout=stackLayout;horizontal=1;startSize=26;fillColor=none;horizontalStack=0;resizeParent=1;resizeParentMax=0;resizeLast=0;collapsible=1;marginBottom=0;whiteSpace=wrap;html=1;" vertex="1" parent="WIyWlLk6GJQsqaUBKTNV-1">
          <mxGeometry x="-580" y="400" width="140" height="52" as="geometry" />
        </mxCell>
        <mxCell id="IK9ZZzLwYMVuYPHKwz3E-28" value="RequestRespone&lt;div&gt;Operation&lt;/div&gt;" style="swimlane;fontStyle=0;childLayout=stackLayout;horizontal=1;startSize=26;fillColor=none;horizontalStack=0;resizeParent=1;resizeParentMax=0;resizeLast=0;collapsible=1;marginBottom=0;whiteSpace=wrap;html=1;" vertex="1" parent="WIyWlLk6GJQsqaUBKTNV-1">
          <mxGeometry x="-360" y="400" width="140" height="78" as="geometry">
            <mxRectangle x="-580" y="40" width="90" height="30" as="alternateBounds" />
          </mxGeometry>
        </mxCell>
        <mxCell id="IK9ZZzLwYMVuYPHKwz3E-29" value="request: type3" style="text;strokeColor=none;fillColor=none;align=left;verticalAlign=top;spacingLeft=4;spacingRight=4;overflow=hidden;rotatable=0;points=[[0,0.5],[1,0.5]];portConstraint=eastwest;whiteSpace=wrap;html=1;" vertex="1" parent="IK9ZZzLwYMVuYPHKwz3E-28">
          <mxGeometry y="26" width="140" height="26" as="geometry" />
        </mxCell>
        <mxCell id="IK9ZZzLwYMVuYPHKwz3E-30" value="protocol: type4" style="text;strokeColor=none;fillColor=none;align=left;verticalAlign=top;spacingLeft=4;spacingRight=4;overflow=hidden;rotatable=0;points=[[0,0.5],[1,0.5]];portConstraint=eastwest;whiteSpace=wrap;html=1;" vertex="1" parent="IK9ZZzLwYMVuYPHKwz3E-28">
          <mxGeometry y="52" width="140" height="26" as="geometry" />
        </mxCell>
        <mxCell id="IK9ZZzLwYMVuYPHKwz3E-31" value="" style="endArrow=diamondThin;endFill=0;endSize=24;html=1;rounded=0;entryX=0.54;entryY=0.918;entryDx=0;entryDy=0;entryPerimeter=0;exitX=0.54;exitY=-0.03;exitDx=0;exitDy=0;exitPerimeter=0;" edge="1" parent="WIyWlLk6GJQsqaUBKTNV-1" source="IK9ZZzLwYMVuYPHKwz3E-27" target="IK9ZZzLwYMVuYPHKwz3E-26">
          <mxGeometry width="160" relative="1" as="geometry">
            <mxPoint x="-600" y="490" as="sourcePoint" />
            <mxPoint x="-440" y="490" as="targetPoint" />
          </mxGeometry>
        </mxCell>
        <mxCell id="IK9ZZzLwYMVuYPHKwz3E-32" value="" style="endArrow=diamondThin;endFill=1;endSize=24;html=1;rounded=0;exitX=0.009;exitY=0.346;exitDx=0;exitDy=0;exitPerimeter=0;entryX=1;entryY=0.5;entryDx=0;entryDy=0;" edge="1" parent="WIyWlLk6GJQsqaUBKTNV-1" source="IK9ZZzLwYMVuYPHKwz3E-28" target="IK9ZZzLwYMVuYPHKwz3E-27">
          <mxGeometry width="160" relative="1" as="geometry">
            <mxPoint x="-530" y="560" as="sourcePoint" />
            <mxPoint x="-370" y="560" as="targetPoint" />
          </mxGeometry>
        </mxCell>
        <mxCell id="IK9ZZzLwYMVuYPHKwz3E-33" value="Type3" style="swimlane;fontStyle=0;childLayout=stackLayout;horizontal=1;startSize=26;fillColor=none;horizontalStack=0;resizeParent=1;resizeParentMax=0;resizeLast=0;collapsible=1;marginBottom=0;whiteSpace=wrap;html=1;" vertex="1" parent="WIyWlLk6GJQsqaUBKTNV-1">
          <mxGeometry x="-150" y="390" width="60" height="52" as="geometry" />
        </mxCell>
        <mxCell id="IK9ZZzLwYMVuYPHKwz3E-34" value="Type4" style="swimlane;fontStyle=0;childLayout=stackLayout;horizontal=1;startSize=26;fillColor=none;horizontalStack=0;resizeParent=1;resizeParentMax=0;resizeLast=0;collapsible=1;marginBottom=0;whiteSpace=wrap;html=1;" vertex="1" parent="WIyWlLk6GJQsqaUBKTNV-1">
          <mxGeometry x="-150" y="452" width="60" height="52" as="geometry" />
        </mxCell>
        <mxCell id="IK9ZZzLwYMVuYPHKwz3E-35" value="" style="endArrow=open;endFill=1;endSize=12;html=1;rounded=0;exitX=1;exitY=0.5;exitDx=0;exitDy=0;entryX=0;entryY=0.5;entryDx=0;entryDy=0;" edge="1" parent="WIyWlLk6GJQsqaUBKTNV-1" source="IK9ZZzLwYMVuYPHKwz3E-29" target="IK9ZZzLwYMVuYPHKwz3E-33">
          <mxGeometry width="160" relative="1" as="geometry">
            <mxPoint x="-300" y="520" as="sourcePoint" />
            <mxPoint x="-140" y="520" as="targetPoint" />
          </mxGeometry>
        </mxCell>
        <mxCell id="IK9ZZzLwYMVuYPHKwz3E-36" value="" style="endArrow=open;endFill=1;endSize=12;html=1;rounded=0;exitX=1;exitY=0.5;exitDx=0;exitDy=0;entryX=0;entryY=0.5;entryDx=0;entryDy=0;" edge="1" parent="WIyWlLk6GJQsqaUBKTNV-1" target="IK9ZZzLwYMVuYPHKwz3E-34">
          <mxGeometry width="160" relative="1" as="geometry">
            <mxPoint x="-220" y="465" as="sourcePoint" />
            <mxPoint x="-150" y="442" as="targetPoint" />
          </mxGeometry>
        </mxCell>
        <mxCell id="IK9ZZzLwYMVuYPHKwz3E-37" value="" style="endArrow=diamondThin;endFill=1;endSize=24;html=1;rounded=0;exitX=-0.003;exitY=0.141;exitDx=0;exitDy=0;entryX=1;entryY=1;entryDx=0;entryDy=0;exitPerimeter=0;" edge="1" parent="WIyWlLk6GJQsqaUBKTNV-1" source="IK9ZZzLwYMVuYPHKwz3E-24" target="IK9ZZzLwYMVuYPHKwz3E-0">
          <mxGeometry width="160" relative="1" as="geometry">
            <mxPoint x="-630" y="150" as="sourcePoint" />
            <mxPoint x="-710" y="150" as="targetPoint" />
            <Array as="points">
              <mxPoint x="-660" y="280" />
            </Array>
          </mxGeometry>
        </mxCell>
        <mxCell id="IK9ZZzLwYMVuYPHKwz3E-38" value="TargetService" style="text;html=1;align=center;verticalAlign=middle;whiteSpace=wrap;rounded=0;" vertex="1" parent="WIyWlLk6GJQsqaUBKTNV-1">
          <mxGeometry x="-760" y="10" width="60" height="30" as="geometry" />
        </mxCell>
        <mxCell id="IK9ZZzLwYMVuYPHKwz3E-42" value="Behaviour" style="swimlane;fontStyle=0;childLayout=stackLayout;horizontal=1;startSize=26;fillColor=none;horizontalStack=0;resizeParent=1;resizeParentMax=0;resizeLast=0;collapsible=1;marginBottom=0;whiteSpace=wrap;html=1;" vertex="1" parent="WIyWlLk6GJQsqaUBKTNV-1">
          <mxGeometry x="-790" y="170" width="120" height="52" as="geometry" />
        </mxCell>
        <mxCell id="IK9ZZzLwYMVuYPHKwz3E-43" value="" style="endArrow=diamondThin;endFill=1;endSize=24;html=1;rounded=0;exitX=0.5;exitY=0;exitDx=0;exitDy=0;entryX=0.5;entryY=1;entryDx=0;entryDy=0;" edge="1" parent="WIyWlLk6GJQsqaUBKTNV-1" source="IK9ZZzLwYMVuYPHKwz3E-42" target="IK9ZZzLwYMVuYPHKwz3E-0">
          <mxGeometry width="160" relative="1" as="geometry">
            <mxPoint x="-570" y="89" as="sourcePoint" />
            <mxPoint x="-650" y="89" as="targetPoint" />
          </mxGeometry>
        </mxCell>
        <mxCell id="IK9ZZzLwYMVuYPHKwz3E-44" value="Jolie" style="swimlane;fontStyle=0;childLayout=stackLayout;horizontal=1;startSize=26;fillColor=none;horizontalStack=0;resizeParent=1;resizeParentMax=0;resizeLast=0;collapsible=1;marginBottom=0;whiteSpace=wrap;html=1;" vertex="1" parent="WIyWlLk6GJQsqaUBKTNV-1">
          <mxGeometry x="-790" y="270" width="120" height="52" as="geometry" />
        </mxCell>
        <mxCell id="IK9ZZzLwYMVuYPHKwz3E-46" value="" style="endArrow=block;endSize=16;endFill=0;html=1;rounded=0;entryX=0.5;entryY=1;entryDx=0;entryDy=0;exitX=0.5;exitY=0;exitDx=0;exitDy=0;" edge="1" parent="WIyWlLk6GJQsqaUBKTNV-1" source="IK9ZZzLwYMVuYPHKwz3E-44" target="IK9ZZzLwYMVuYPHKwz3E-42">
          <mxGeometry width="160" relative="1" as="geometry">
            <mxPoint x="-740" y="310" as="sourcePoint" />
            <mxPoint x="-580" y="310" as="targetPoint" />
          </mxGeometry>
        </mxCell>
        <mxCell id="IK9ZZzLwYMVuYPHKwz3E-47" value="Service" style="swimlane;fontStyle=0;childLayout=stackLayout;horizontal=1;startSize=26;fillColor=none;horizontalStack=0;resizeParent=1;resizeParentMax=0;resizeLast=0;collapsible=1;marginBottom=0;whiteSpace=wrap;html=1;" vertex="1" parent="WIyWlLk6GJQsqaUBKTNV-1">
          <mxGeometry x="-800" y="546" width="140" height="52" as="geometry" />
        </mxCell>
        <mxCell id="IK9ZZzLwYMVuYPHKwz3E-48" value="InputPort" style="swimlane;fontStyle=0;childLayout=stackLayout;horizontal=1;startSize=26;fillColor=none;horizontalStack=0;resizeParent=1;resizeParentMax=0;resizeLast=0;collapsible=1;marginBottom=0;whiteSpace=wrap;html=1;" vertex="1" parent="WIyWlLk6GJQsqaUBKTNV-1">
          <mxGeometry x="-580" y="533" width="140" height="78" as="geometry">
            <mxRectangle x="-580" y="40" width="90" height="30" as="alternateBounds" />
          </mxGeometry>
        </mxCell>
        <mxCell id="IK9ZZzLwYMVuYPHKwz3E-49" value="location: l2" style="text;strokeColor=none;fillColor=none;align=left;verticalAlign=top;spacingLeft=4;spacingRight=4;overflow=hidden;rotatable=0;points=[[0,0.5],[1,0.5]];portConstraint=eastwest;whiteSpace=wrap;html=1;" vertex="1" parent="IK9ZZzLwYMVuYPHKwz3E-48">
          <mxGeometry y="26" width="140" height="26" as="geometry" />
        </mxCell>
        <mxCell id="IK9ZZzLwYMVuYPHKwz3E-50" value="protocol: p2" style="text;strokeColor=none;fillColor=none;align=left;verticalAlign=top;spacingLeft=4;spacingRight=4;overflow=hidden;rotatable=0;points=[[0,0.5],[1,0.5]];portConstraint=eastwest;whiteSpace=wrap;html=1;" vertex="1" parent="IK9ZZzLwYMVuYPHKwz3E-48">
          <mxGeometry y="52" width="140" height="26" as="geometry" />
        </mxCell>
        <mxCell id="IK9ZZzLwYMVuYPHKwz3E-51" value="" style="endArrow=diamondThin;endFill=1;endSize=24;html=1;rounded=0;exitX=0;exitY=0.5;exitDx=0;exitDy=0;entryX=1;entryY=0.5;entryDx=0;entryDy=0;" edge="1" parent="WIyWlLk6GJQsqaUBKTNV-1" source="IK9ZZzLwYMVuYPHKwz3E-49" target="IK9ZZzLwYMVuYPHKwz3E-47">
          <mxGeometry width="160" relative="1" as="geometry">
            <mxPoint x="-680" y="673" as="sourcePoint" />
            <mxPoint x="-520" y="673" as="targetPoint" />
          </mxGeometry>
        </mxCell>
        <mxCell id="IK9ZZzLwYMVuYPHKwz3E-52" value="Interface" style="swimlane;fontStyle=0;childLayout=stackLayout;horizontal=1;startSize=26;fillColor=none;horizontalStack=0;resizeParent=1;resizeParentMax=0;resizeLast=0;collapsible=1;marginBottom=0;whiteSpace=wrap;html=1;" vertex="1" parent="WIyWlLk6GJQsqaUBKTNV-1">
          <mxGeometry x="-580" y="663" width="140" height="52" as="geometry" />
        </mxCell>
        <mxCell id="IK9ZZzLwYMVuYPHKwz3E-53" value="RequestRespone&lt;div&gt;Operation&lt;/div&gt;" style="swimlane;fontStyle=0;childLayout=stackLayout;horizontal=1;startSize=26;fillColor=none;horizontalStack=0;resizeParent=1;resizeParentMax=0;resizeLast=0;collapsible=1;marginBottom=0;whiteSpace=wrap;html=1;" vertex="1" parent="WIyWlLk6GJQsqaUBKTNV-1">
          <mxGeometry x="-360" y="660" width="140" height="78" as="geometry">
            <mxRectangle x="-580" y="40" width="90" height="30" as="alternateBounds" />
          </mxGeometry>
        </mxCell>
        <mxCell id="IK9ZZzLwYMVuYPHKwz3E-54" value="request: type3" style="text;strokeColor=none;fillColor=none;align=left;verticalAlign=top;spacingLeft=4;spacingRight=4;overflow=hidden;rotatable=0;points=[[0,0.5],[1,0.5]];portConstraint=eastwest;whiteSpace=wrap;html=1;" vertex="1" parent="IK9ZZzLwYMVuYPHKwz3E-53">
          <mxGeometry y="26" width="140" height="26" as="geometry" />
        </mxCell>
        <mxCell id="IK9ZZzLwYMVuYPHKwz3E-55" value="protocol: type4" style="text;strokeColor=none;fillColor=none;align=left;verticalAlign=top;spacingLeft=4;spacingRight=4;overflow=hidden;rotatable=0;points=[[0,0.5],[1,0.5]];portConstraint=eastwest;whiteSpace=wrap;html=1;" vertex="1" parent="IK9ZZzLwYMVuYPHKwz3E-53">
          <mxGeometry y="52" width="140" height="26" as="geometry" />
        </mxCell>
        <mxCell id="IK9ZZzLwYMVuYPHKwz3E-56" value="" style="endArrow=diamondThin;endFill=0;endSize=24;html=1;rounded=0;entryX=0.54;entryY=0.918;entryDx=0;entryDy=0;entryPerimeter=0;exitX=0.54;exitY=-0.03;exitDx=0;exitDy=0;exitPerimeter=0;" edge="1" parent="WIyWlLk6GJQsqaUBKTNV-1" source="IK9ZZzLwYMVuYPHKwz3E-52" target="IK9ZZzLwYMVuYPHKwz3E-50">
          <mxGeometry width="160" relative="1" as="geometry">
            <mxPoint x="-600" y="753" as="sourcePoint" />
            <mxPoint x="-440" y="753" as="targetPoint" />
          </mxGeometry>
        </mxCell>
        <mxCell id="IK9ZZzLwYMVuYPHKwz3E-57" value="" style="endArrow=diamondThin;endFill=1;endSize=24;html=1;rounded=0;exitX=0.009;exitY=0.346;exitDx=0;exitDy=0;exitPerimeter=0;entryX=1;entryY=0.5;entryDx=0;entryDy=0;" edge="1" parent="WIyWlLk6GJQsqaUBKTNV-1" source="IK9ZZzLwYMVuYPHKwz3E-53" target="IK9ZZzLwYMVuYPHKwz3E-52">
          <mxGeometry width="160" relative="1" as="geometry">
            <mxPoint x="-530" y="780" as="sourcePoint" />
            <mxPoint x="-370" y="780" as="targetPoint" />
          </mxGeometry>
        </mxCell>
        <mxCell id="IK9ZZzLwYMVuYPHKwz3E-58" value="Type3" style="swimlane;fontStyle=0;childLayout=stackLayout;horizontal=1;startSize=26;fillColor=none;horizontalStack=0;resizeParent=1;resizeParentMax=0;resizeLast=0;collapsible=1;marginBottom=0;whiteSpace=wrap;html=1;" vertex="1" parent="WIyWlLk6GJQsqaUBKTNV-1">
          <mxGeometry x="-150" y="650" width="60" height="52" as="geometry" />
        </mxCell>
        <mxCell id="IK9ZZzLwYMVuYPHKwz3E-59" value="Type4" style="swimlane;fontStyle=0;childLayout=stackLayout;horizontal=1;startSize=26;fillColor=none;horizontalStack=0;resizeParent=1;resizeParentMax=0;resizeLast=0;collapsible=1;marginBottom=0;whiteSpace=wrap;html=1;" vertex="1" parent="WIyWlLk6GJQsqaUBKTNV-1">
          <mxGeometry x="-150" y="712" width="60" height="52" as="geometry" />
        </mxCell>
        <mxCell id="IK9ZZzLwYMVuYPHKwz3E-60" value="" style="endArrow=open;endFill=1;endSize=12;html=1;rounded=0;exitX=1;exitY=0.5;exitDx=0;exitDy=0;entryX=0;entryY=0.5;entryDx=0;entryDy=0;" edge="1" parent="WIyWlLk6GJQsqaUBKTNV-1" source="IK9ZZzLwYMVuYPHKwz3E-54" target="IK9ZZzLwYMVuYPHKwz3E-58">
          <mxGeometry width="160" relative="1" as="geometry">
            <mxPoint x="-300" y="780" as="sourcePoint" />
            <mxPoint x="-140" y="780" as="targetPoint" />
          </mxGeometry>
        </mxCell>
        <mxCell id="IK9ZZzLwYMVuYPHKwz3E-61" value="" style="endArrow=open;endFill=1;endSize=12;html=1;rounded=0;exitX=1;exitY=0.5;exitDx=0;exitDy=0;entryX=0;entryY=0.5;entryDx=0;entryDy=0;" edge="1" parent="WIyWlLk6GJQsqaUBKTNV-1" target="IK9ZZzLwYMVuYPHKwz3E-59">
          <mxGeometry width="160" relative="1" as="geometry">
            <mxPoint x="-220" y="725" as="sourcePoint" />
            <mxPoint x="-150" y="702" as="targetPoint" />
          </mxGeometry>
        </mxCell>
        <mxCell id="IK9ZZzLwYMVuYPHKwz3E-76" value="ValidatorService" style="text;html=1;align=center;verticalAlign=middle;whiteSpace=wrap;rounded=0;" vertex="1" parent="WIyWlLk6GJQsqaUBKTNV-1">
          <mxGeometry x="-760" y="503" width="60" height="30" as="geometry" />
        </mxCell>
        <mxCell id="IK9ZZzLwYMVuYPHKwz3E-77" value="Behaviour" style="swimlane;fontStyle=0;childLayout=stackLayout;horizontal=1;startSize=26;fillColor=none;horizontalStack=0;resizeParent=1;resizeParentMax=0;resizeLast=0;collapsible=1;marginBottom=0;whiteSpace=wrap;html=1;" vertex="1" parent="WIyWlLk6GJQsqaUBKTNV-1">
          <mxGeometry x="-790" y="630" width="120" height="52" as="geometry" />
        </mxCell>
        <mxCell id="IK9ZZzLwYMVuYPHKwz3E-78" value="" style="endArrow=diamondThin;endFill=1;endSize=24;html=1;rounded=0;exitX=0.5;exitY=0;exitDx=0;exitDy=0;entryX=0.5;entryY=1;entryDx=0;entryDy=0;" edge="1" parent="WIyWlLk6GJQsqaUBKTNV-1" source="IK9ZZzLwYMVuYPHKwz3E-77" target="IK9ZZzLwYMVuYPHKwz3E-47">
          <mxGeometry width="160" relative="1" as="geometry">
            <mxPoint x="-570" y="582" as="sourcePoint" />
            <mxPoint x="-650" y="582" as="targetPoint" />
          </mxGeometry>
        </mxCell>
        <mxCell id="IK9ZZzLwYMVuYPHKwz3E-79" value="Jolie" style="swimlane;fontStyle=0;childLayout=stackLayout;horizontal=1;startSize=26;fillColor=none;horizontalStack=0;resizeParent=1;resizeParentMax=0;resizeLast=0;collapsible=1;marginBottom=0;whiteSpace=wrap;html=1;" vertex="1" parent="WIyWlLk6GJQsqaUBKTNV-1">
          <mxGeometry x="-790" y="715" width="120" height="52" as="geometry" />
        </mxCell>
        <mxCell id="IK9ZZzLwYMVuYPHKwz3E-80" value="" style="endArrow=block;endSize=16;endFill=0;html=1;rounded=0;entryX=0.5;entryY=1;entryDx=0;entryDy=0;exitX=0.5;exitY=0;exitDx=0;exitDy=0;" edge="1" parent="WIyWlLk6GJQsqaUBKTNV-1" source="IK9ZZzLwYMVuYPHKwz3E-79" target="IK9ZZzLwYMVuYPHKwz3E-77">
          <mxGeometry width="160" relative="1" as="geometry">
            <mxPoint x="-740" y="803" as="sourcePoint" />
            <mxPoint x="-580" y="803" as="targetPoint" />
          </mxGeometry>
        </mxCell>
        <mxCell id="IK9ZZzLwYMVuYPHKwz3E-82" value="Module" style="swimlane;fontStyle=0;childLayout=stackLayout;horizontal=1;startSize=26;fillColor=none;horizontalStack=0;resizeParent=1;resizeParentMax=0;resizeLast=0;collapsible=1;marginBottom=0;whiteSpace=wrap;html=1;" vertex="1" parent="WIyWlLk6GJQsqaUBKTNV-1">
          <mxGeometry x="-960" y="170" width="140" height="52" as="geometry" />
        </mxCell>
        <mxCell id="IK9ZZzLwYMVuYPHKwz3E-83" value="" style="endArrow=diamondThin;endFill=1;endSize=24;html=1;rounded=0;entryX=0.5;entryY=0;entryDx=0;entryDy=0;exitX=0;exitY=0.5;exitDx=0;exitDy=0;" edge="1" parent="WIyWlLk6GJQsqaUBKTNV-1" source="IK9ZZzLwYMVuYPHKwz3E-0" target="IK9ZZzLwYMVuYPHKwz3E-82">
          <mxGeometry width="160" relative="1" as="geometry">
            <mxPoint x="-900" y="40" as="sourcePoint" />
            <mxPoint x="-910" y="250" as="targetPoint" />
            <Array as="points">
              <mxPoint x="-890" y="80" />
            </Array>
          </mxGeometry>
        </mxCell>
        <mxCell id="IK9ZZzLwYMVuYPHKwz3E-86" value="Module" style="swimlane;fontStyle=0;childLayout=stackLayout;horizontal=1;startSize=26;fillColor=none;horizontalStack=0;resizeParent=1;resizeParentMax=0;resizeLast=0;collapsible=1;marginBottom=0;whiteSpace=wrap;html=1;" vertex="1" parent="WIyWlLk6GJQsqaUBKTNV-1">
          <mxGeometry x="-370" y="570" width="140" height="52" as="geometry" />
        </mxCell>
        <mxCell id="IK9ZZzLwYMVuYPHKwz3E-87" value="" style="endArrow=diamondThin;endFill=1;endSize=24;html=1;rounded=0;exitX=1;exitY=0;exitDx=0;exitDy=0;entryX=0.069;entryY=0.014;entryDx=0;entryDy=0;entryPerimeter=0;" edge="1" parent="WIyWlLk6GJQsqaUBKTNV-1" source="IK9ZZzLwYMVuYPHKwz3E-47" target="IK9ZZzLwYMVuYPHKwz3E-86">
          <mxGeometry width="160" relative="1" as="geometry">
            <mxPoint x="-600" y="556" as="sourcePoint" />
            <mxPoint x="-170" y="570.3272727272727" as="targetPoint" />
            <Array as="points">
              <mxPoint x="-660" y="510" />
              <mxPoint x="-359" y="510" />
            </Array>
          </mxGeometry>
        </mxCell>
        <mxCell id="IK9ZZzLwYMVuYPHKwz3E-89" value="" style="endArrow=diamondThin;endFill=1;endSize=24;html=1;rounded=0;exitX=1;exitY=0;exitDx=0;exitDy=0;" edge="1" parent="WIyWlLk6GJQsqaUBKTNV-1" source="IK9ZZzLwYMVuYPHKwz3E-52">
          <mxGeometry width="160" relative="1" as="geometry">
            <mxPoint x="-650" y="556" as="sourcePoint" />
            <mxPoint x="-370" y="620" as="targetPoint" />
            <Array as="points">
              <mxPoint x="-440" y="640" />
              <mxPoint x="-440" y="620" />
            </Array>
          </mxGeometry>
        </mxCell>
        <mxCell id="IK9ZZzLwYMVuYPHKwz3E-90" value="" style="endArrow=diamondThin;endFill=1;endSize=24;html=1;rounded=0;exitX=0;exitY=0.25;exitDx=0;exitDy=0;entryX=1;entryY=1;entryDx=0;entryDy=0;" edge="1" parent="WIyWlLk6GJQsqaUBKTNV-1" source="IK9ZZzLwYMVuYPHKwz3E-58" target="IK9ZZzLwYMVuYPHKwz3E-86">
          <mxGeometry width="160" relative="1" as="geometry">
            <mxPoint x="-180" y="654" as="sourcePoint" />
            <mxPoint x="-110" y="611" as="targetPoint" />
            <Array as="points">
              <mxPoint x="-190" y="663" />
              <mxPoint x="-190" y="640" />
              <mxPoint x="-190" y="622" />
            </Array>
          </mxGeometry>
        </mxCell>
        <mxCell id="IK9ZZzLwYMVuYPHKwz3E-91" value="" style="endArrow=diamondThin;endFill=1;endSize=24;html=1;rounded=0;exitX=1;exitY=0.349;exitDx=0;exitDy=0;entryX=1;entryY=1;entryDx=0;entryDy=0;exitPerimeter=0;" edge="1" parent="WIyWlLk6GJQsqaUBKTNV-1" source="IK9ZZzLwYMVuYPHKwz3E-59">
          <mxGeometry width="160" relative="1" as="geometry">
            <mxPoint x="-150" y="622" as="sourcePoint" />
            <mxPoint x="-230" y="581" as="targetPoint" />
            <Array as="points">
              <mxPoint x="-70" y="730" />
              <mxPoint x="-70" y="580" />
              <mxPoint x="-190" y="581" />
            </Array>
          </mxGeometry>
        </mxCell>
      </root>
    </mxGraphModel>
  </diagram>
</mxfile>
